<svg width="28" height="40" viewBox="0 0 28 40" fill="none" xmlns="http://www.w3.org/2000/svg">
<path d="M25.4167 13.3333C24.2667 13.3333 23.3333 14.2667 23.3333 15.4167V25H22.5C19.75 25 17.5 27.25 17.5 30H15.8333C15.8333 26.6 18.3833 23.8 21.6667 23.3833V5.41667C21.6667 4.26667 20.7333 3.33333 19.5833 3.33333C18.4333 3.33333 17.5 4.26667 17.5 5.41667V18.3333H15.8333V2.08333C15.8333 0.933333 14.9 0 13.75 0C12.6 0 11.6667 0.933333 11.6667 2.08333V18.3333H10V4.58333C10 3.43333 9.06667 2.5 7.91667 2.5C6.76667 2.5 5.83333 3.43333 5.83333 4.58333V20H4.16667V9.58333C4.16667 8.43333 3.23333 7.5 2.08333 7.5C0.933333 7.5 0 8.43333 0 9.58333V26.25C0 33.85 6.15 40 13.75 40C21.35 40 27.5 33.85 27.5 26.25V15.4167C27.5 14.2667 26.5667 13.3333 25.4167 13.3333Z" fill="white"/>
</svg>
