<svg width="30" height="32" viewBox="0 0 30 32" fill="none" xmlns="http://www.w3.org/2000/svg">
<path d="M26.6667 15.3335H23.8333C23.8333 16.5668 23.5667 17.7168 23.1167 18.7502L25.1667 20.8002C26.1 19.1668 26.6667 17.3168 26.6667 15.3335ZM19.9667 15.6168C19.9667 15.5168 20 15.4335 20 15.3335V5.3335C20 2.56683 17.7667 0.333496 15 0.333496C12.2333 0.333496 10 2.56683 10 5.3335V5.6335L19.9667 15.6168ZM2.11667 2.00016L0 4.11683L10.0167 14.1335V15.3335C10.0167 18.1002 12.2333 20.3335 15 20.3335C15.3667 20.3335 15.7333 20.2835 16.0833 20.2002L18.85 22.9668C17.6667 23.5168 16.35 23.8335 15 23.8335C10.4 23.8335 6.16667 20.3335 6.16667 15.3335H3.33333C3.33333 21.0168 7.86667 25.7168 13.3333 26.5335V32.0002H16.6667V26.5335C18.1833 26.3168 19.6167 25.7835 20.9 25.0335L27.8833 32.0002L30 29.8835L2.11667 2.00016Z" fill="white"/>
</svg>
