<svg width="24" height="32" viewBox="0 0 24 32" fill="none" xmlns="http://www.w3.org/2000/svg">
<path d="M12 20.3335C14.7667 20.3335 17 18.1002 17 15.3335V5.3335C17 2.56683 14.7667 0.333496 12 0.333496C9.23333 0.333496 7 2.56683 7 5.3335V15.3335C7 18.1002 9.23333 20.3335 12 20.3335Z" fill="white"/>
<path d="M20.333 15.3335C20.333 19.9335 16.5997 23.6668 11.9997 23.6668C7.39967 23.6668 3.66634 19.9335 3.66634 15.3335H0.333008C0.333008 21.2168 4.68301 26.0502 10.333 26.8668V32.0002H13.6663V26.8668C19.3163 26.0502 23.6663 21.2168 23.6663 15.3335H20.333Z" fill="white"/>
</svg>
