<svg width="40" height="40" viewBox="0 0 40 40" fill="none" xmlns="http://www.w3.org/2000/svg">
<path d="M19.9997 3.3335C10.7997 3.3335 3.33301 10.8002 3.33301 20.0002C3.33301 29.2002 10.7997 36.6668 19.9997 36.6668C29.1997 36.6668 36.6663 29.2002 36.6663 20.0002C36.6663 10.8002 29.1997 3.3335 19.9997 3.3335ZM19.9997 33.3335C12.633 33.3335 6.66634 27.3668 6.66634 20.0002C6.66634 12.6335 12.633 6.66683 19.9997 6.66683C27.3663 6.66683 33.333 12.6335 33.333 20.0002C33.333 27.3668 27.3663 33.3335 19.9997 33.3335Z" fill="white"/>
<path d="M20.0003 28.3332C24.6027 28.3332 28.3337 24.6022 28.3337 19.9998C28.3337 15.3975 24.6027 11.6665 20.0003 11.6665C15.398 11.6665 11.667 15.3975 11.667 19.9998C11.667 24.6022 15.398 28.3332 20.0003 28.3332Z" fill="white"/>
</svg>
