<svg width="20" height="20" viewBox="0 0 20 20" fill="none" xmlns="http://www.w3.org/2000/svg">
<path d="M10 2L6.8 5.2L8.4 6.8L11.6 3.6C12.92 2.28 15.08 2.28 16.4 3.6C17.72 4.92 17.72 7.08 16.4 8.4L13.2 11.6L14.8 13.2L18 10C20.208 7.792 20.208 4.208 18 2C15.792 -0.207998 12.208 -0.207999 10 2ZM11.6 13.2L8.4 16.4C7.08 17.72 4.92 17.72 3.6 16.4C2.28 15.08 2.28 12.92 3.6 11.6L6.8 8.4L5.2 6.8L2 10C-0.208 12.208 -0.208 15.792 2 18C4.208 20.208 7.792 20.208 10 18L13.2 14.8L11.6 13.2ZM6 12.4L12.4 6L14 7.6L7.6 14L6 12.4Z" fill="#535353"/>
</svg>
