<svg width="40" height="16" viewBox="0 0 40 16" fill="none" xmlns="http://www.w3.org/2000/svg">
<path d="M20 3.99984C17.3333 3.99984 14.75 4.4165 12.3333 5.19984V10.3665C12.3333 11.0165 11.95 11.5998 11.4 11.8665C9.76667 12.6832 8.28333 13.7332 6.96667 14.9498C6.66667 15.2498 6.25 15.4165 5.8 15.4165C5.33333 15.4165 4.91667 15.2332 4.61667 14.9332L0.483333 10.7998C0.183333 10.5165 0 10.0998 0 9.63317C0 9.1665 0.183333 8.74984 0.483333 8.44984C5.56667 3.63317 12.4333 0.666504 20 0.666504C27.5667 0.666504 34.4333 3.63317 39.5167 8.44984C39.8167 8.74984 40 9.1665 40 9.63317C40 10.0998 39.8167 10.5165 39.5167 10.8165L35.3833 14.9498C35.0833 15.2498 34.6667 15.4332 34.2 15.4332C33.75 15.4332 33.3333 15.2498 33.0333 14.9665C31.7167 13.7332 30.2167 12.6998 28.5833 11.8832C28.0333 11.6165 27.65 11.0498 27.65 10.3832V5.2165C25.25 4.4165 22.6667 3.99984 20 3.99984Z" fill="white"/>
</svg>
