<svg width="40" height="28" viewBox="0 0 40 28" fill="none" xmlns="http://www.w3.org/2000/svg">
<path d="M33.3333 23.9998C35.1667 23.9998 36.65 22.4998 36.65 20.6665L36.6667 3.99984C36.6667 2.14984 35.1667 0.666504 33.3333 0.666504H6.66667C4.81667 0.666504 3.33333 2.14984 3.33333 3.99984V20.6665C3.33333 22.4998 4.81667 23.9998 6.66667 23.9998H0V27.3332H40V23.9998H33.3333ZM6.66667 20.6665V3.99984H33.3333V20.6832L6.66667 20.6665ZM21.6667 9.2165C15.1833 10.1165 12.6 14.5498 11.6667 18.9998C13.9833 15.8832 17.0333 14.4665 21.6667 14.4665V18.1165L28.3333 11.8832L21.6667 5.6665V9.2165Z" fill="white"/>
</svg>
